<?xml version="1.0" encoding="UTF-8" standalone="no"?>
<!-- Created with Inkscape (http://www.inkscape.org/) -->

<svg
   xmlns:dc="http://purl.org/dc/elements/1.1/"
   xmlns:cc="http://creativecommons.org/ns#"
   xmlns:rdf="http://www.w3.org/1999/02/22-rdf-syntax-ns#"
   xmlns:svg="http://www.w3.org/2000/svg"
   xmlns="http://www.w3.org/2000/svg"
   xmlns:sodipodi="http://sodipodi.sourceforge.net/DTD/sodipodi-0.dtd"
   xmlns:inkscape="http://www.inkscape.org/namespaces/inkscape"
   id="svg2"
   version="1.1"
   inkscape:version="0.48.4 r9939"
   width="83.819374"
   height="83.819382"
   sodipodi:docname="icon3.png">
  <metadata
     id="metadata8">
    <rdf:RDF>
      <cc:Work
         rdf:about="">
        <dc:format>image/svg+xml</dc:format>
        <dc:type
           rdf:resource="http://purl.org/dc/dcmitype/StillImage" />
        <dc:title></dc:title>
      </cc:Work>
    </rdf:RDF>
  </metadata>
  <defs
     id="defs6" />
  <sodipodi:namedview
     pagecolor="#ffffff"
     bordercolor="#666666"
     borderopacity="1"
     objecttolerance="10"
     gridtolerance="10"
     guidetolerance="10"
     inkscape:pageopacity="0"
     inkscape:pageshadow="2"
     inkscape:window-width="1099"
     inkscape:window-height="817"
     id="namedview4"
     showgrid="false"
     fit-margin-top="0"
     fit-margin-left="0"
     fit-margin-right="0"
     fit-margin-bottom="0"
     inkscape:zoom="2.744186"
     inkscape:cx="-12.230692"
     inkscape:cy="42.248121"
     inkscape:window-x="421"
     inkscape:window-y="69"
     inkscape:window-maximized="0"
     inkscape:current-layer="svg2" />
  <g
     id="g3001"
     style="fill:#ffffff"
     transform="translate(-92.582387,18.978044)">
    <path
       inkscape:connector-curvature="0"
       id="path2993"
       d="m 142.28981,63.887621 c 15.28163,-3.0073 28.42121,-15.51834 32.59377,-31.03463 l 1.4509,-5.395364 0.0658,5.090274 c 0.19039,14.72604 -18.00052,32.56136 -32.93419,32.29039 l -5.5,-0.0998 4.32371,-0.85087 z m -22.25228,-16.50142 c -1.32565,-1.32565 -1.57143,-4.75541 -1.57143,-21.928574 0,-22.0018655 0.34775,-23.4999994 5.4548,-23.4999994 1.47094,0 2.50219,-0.727531 2.83495,-2.00000004 0.4658,-1.78119496 1.36402,-1.99999996 8.21025,-1.99999996 6.84624,0 7.74446,0.218805 8.21025,1.99999996 0.33276,1.27246904 1.36402,2.00000004 2.83496,2.00000004 5.10705,0 5.45479,1.4981339 5.45479,23.4999994 0,17.173164 -0.24578,20.602924 -1.57143,21.928574 -2.30623,2.30623 -27.55091,2.30623 -29.85714,0 z m 27.85714,-2 c 1.31444,-1.31444 1.57143,-4.5736 1.57143,-19.928574 0,-19.8346894 -0.42251,-21.4999995 -5.45479,-21.4999995 -1.47094,0 -2.5022,-0.7275309 -2.83496,-1.9999999 -0.44567,-1.70424904 -1.36401,-2.00000004 -6.21025,-2.00000004 -4.84623,0 -5.76458,0.295751 -6.21025,2.00000004 -0.33276,1.272469 -1.36401,1.9999999 -2.83495,1.9999999 -5.03229,0 -5.4548,1.6653101 -5.4548,21.4999995 0,15.354974 0.257,18.614134 1.57143,19.928574 2.28725,2.28725 23.56989,2.28725 25.85714,0 z M 122.923,43.705911 c -0.27764,-0.72354 -0.38153,-9.40039 -0.23085,-19.281902 l 0.27395,-17.9663814 12,0 12,0 0,18.9999994 0,19.000004 -11.76914,0.2819 c -9.00972,0.2158 -11.8875,-0.0265 -12.27396,-1.03362 z m 20.0431,-13.24828 0,-10.000004 -8,0 -8,0 -0.29142,8.920857 c -0.16029,4.906467 -0.0546,9.538027 0.23486,10.292337 0.3974,1.0356 2.42801,1.29988 8.29142,1.07914 l 7.76514,-0.29233 0,-10 z m 2.29359,-17.000003 -0.29359,-5.0000004 -10,0 -10,0 -0.29359,5.0000004 -0.29359,4.999999 10.58718,0 10.58718,0 -0.29359,-4.999999 z m -52.674253,0.5 c -0.27097,-14.93366444 17.564343,-33.12458 32.290393,-32.93419 l 5.09027,0.06581 -5.39537,1.450896 C 109.05445,-13.287292 96.543409,-0.14771044 93.536105,15.13392 l -0.850872,4.323706 -0.0998,-5.499999 z"
       style="fill:#ffffff" />
    <rect
       y="19.677965"
       x="125.72034"
       height="22.59322"
       width="18.584745"
       id="rect2997"
       style="fill:#ffffff;stroke:none" />
  </g>
</svg>
